<?xml version="1.0" encoding="UTF-8"?>
<svg version="1.1" xmlns="http://www.w3.org/2000/svg" width="370" height="370">
<path d="M0 0 C31.02219288 27.0465501 51.22986925 62.35650071 60.17089844 102.44384766 C60.41646484 103.46357666 60.41646484 103.46357666 60.66699219 104.50390625 C71.23994019 149.55908241 59.90751438 200.5034984 35.89746094 239.28369141 C8.28535216 282.26633756 -34.05721327 311.34279109 -83.82910156 322.44384766 C-84.84883057 322.68941406 -84.84883057 322.68941406 -85.88916016 322.93994141 C-130.94433631 333.51288941 -181.88875231 322.1804636 -220.66894531 298.17041016 C-263.65159147 270.55830137 -292.728045 228.21573595 -303.82910156 178.44384766 C-303.9928125 177.76402832 -304.15652344 177.08420898 -304.32519531 176.38378906 C-314.89814332 131.32861291 -303.5657175 80.38419691 -279.55566406 41.60400391 C-251.94355528 -1.37864225 -209.60098986 -30.45509578 -159.82910156 -41.55615234 C-159.14928223 -41.71986328 -158.46946289 -41.88357422 -157.76904297 -42.05224609 C-102.60474242 -54.99746862 -42.29016259 -35.97937752 0 0 Z " fill="#5A22F6" transform="translate(306.8291015625,44.55615234375)"/>
<path d="M0 0 C6.86787567 0.31064138 12.9296335 2.01626447 19.4375 4.125 C27.99196981 6.81835847 36.57745517 9.27840189 45.25 11.5625 C53.06533268 13.63521184 60.84526136 15.77256595 68.5625 18.1875 C69.65836426 18.52599976 69.65836426 18.52599976 70.77636719 18.87133789 C80.735713 22.05273134 90.570823 25.54921041 96 35 C97.17747996 38.53243988 97.19962907 41.77009539 97.23828125 45.44921875 C97.246353 46.18066605 97.25442474 46.91211334 97.26274109 47.66572571 C97.27656363 49.21487065 97.28729397 50.76404581 97.29516602 52.31323242 C97.30665732 53.88721731 97.32706404 55.4611641 97.35668945 57.03491211 C97.54919069 67.26543878 97.65888336 75.27794581 90.1875 83.125 C79.48452814 91.39750534 64.51037419 93.86921685 51.734375 97.203125 C45.35687888 98.87909724 39.05008322 100.74272587 32.75 102.6875 C31.80116943 102.97882813 30.85233887 103.27015625 29.87475586 103.5703125 C26.50797266 104.6056065 23.14201288 105.64335643 19.77978516 106.69335938 C6.66994071 110.76960854 6.66994071 110.76960854 0 110 C-3.43359808 106.56640192 -2.33824498 101.63943759 -2.37109375 97 C-2.37093262 96.28199219 -2.37077148 95.56398438 -2.37060547 94.82421875 C-2.37497037 92.63982711 -2.41125701 90.45747025 -2.44921875 88.2734375 C-2.4550887 86.8828194 -2.4590569 85.49219171 -2.4609375 84.1015625 C-2.46915527 82.83650879 -2.47737305 81.57145508 -2.48583984 80.26806641 C-2 77 -2 77 -0.38208008 74.67895508 C2.5564744 72.60778165 5.079046 71.8790345 8.57421875 71.03515625 C9.21115158 70.87664688 9.84808441 70.71813751 10.50431824 70.55482483 C12.56253806 70.04490135 14.62478697 69.5538954 16.6875 69.0625 C18.80814699 68.54102342 20.92745236 68.01434746 23.04663086 67.48693848 C24.44063663 67.14001873 25.83500427 66.79454971 27.22973633 66.45056152 C32.49026129 65.14794629 37.69204584 63.70559994 42.875 62.125 C48.21285912 60.50432029 53.527349 59.0945302 59 58 C59 56.35 59 54.7 59 53 C58.3922876 52.84442627 57.7845752 52.68885254 57.15844727 52.52856445 C46.37819924 49.76166459 35.61656247 46.97492268 24.96020508 43.75952148 C21.58614538 42.7453746 18.2104463 41.7794156 14.796875 40.90625 C14.11625 40.73174316 13.435625 40.55723633 12.734375 40.37744141 C10.88203141 39.9084302 9.02704197 39.44990337 7.171875 38.9921875 C3.72811831 37.91495326 0.58863006 36.58863006 -2 34 C-2.11317284 31.64771681 -2.16416537 29.32588052 -2.16796875 26.97265625 C-2.17129715 26.26854111 -2.17462555 25.56442596 -2.17805481 24.838974 C-2.18312655 23.34683894 -2.18546306 21.8546925 -2.18530273 20.36254883 C-2.18748759 18.07549393 -2.20563549 15.78892247 -2.22460938 13.50195312 C-2.22754354 12.05468916 -2.22952818 10.60742289 -2.23046875 9.16015625 C-2.23765427 8.47365494 -2.24483978 7.78715363 -2.25224304 7.07984924 C-2.22882369 2.22882369 -2.22882369 2.22882369 0 0 Z " fill="#F7F7F8" transform="translate(72,130)"/>
<path d="M0 0 C0.85658707 -0.00990463 1.71317413 -0.01980927 2.59571838 -0.03001404 C3.53242371 -0.02551239 4.46912903 -0.02101074 5.43421936 -0.01637268 C6.42309647 -0.02323593 7.41197357 -0.03009918 8.43081665 -0.03717041 C11.706917 -0.05550508 14.9825415 -0.05159129 18.25868225 -0.0459137 C20.53167884 -0.05047236 22.80467405 -0.05577698 25.07766724 -0.0617981 C29.84501235 -0.07074237 34.61219006 -0.06829112 39.37953186 -0.05836487 C45.49434028 -0.04687488 51.60857126 -0.06708094 57.72330379 -0.09628201 C62.41843345 -0.11461254 67.11342395 -0.11435778 71.8085804 -0.10864449 C74.06327181 -0.10849088 76.31797243 -0.11456753 78.57262993 -0.12693596 C81.72347796 -0.14178402 84.87324919 -0.13121376 88.02406311 -0.11402893 C88.9587442 -0.1236969 89.89342529 -0.13336487 90.85643005 -0.14332581 C97.1488568 -0.07132198 97.1488568 -0.07132198 100.37210083 2.22250366 C102.37776926 5.27695318 102.31153897 7.56503489 102.3250885 11.20018005 C102.33082886 12.17628235 102.33082886 12.17628235 102.33668518 13.17210388 C102.33939926 14.54378309 102.33207303 15.9155145 102.31532288 17.28709412 C102.2938997 19.38169691 102.31513487 21.47287089 102.3407135 23.56736755 C102.33807013 24.90331259 102.33294493 26.2392555 102.3250885 27.57518005 C102.32057678 28.78560974 102.31606506 29.99603943 102.31141663 31.2431488 C101.7938385 34.38768005 101.7938385 34.38768005 100.37210083 36.55186462 C96.432536 39.35697635 92.74948135 38.94619337 88.02406311 38.90525818 C86.53811897 38.91577209 86.53811897 38.91577209 85.02215576 38.92649841 C81.74654644 38.94410888 78.4718004 38.9324453 75.19618225 38.91893005 C72.92221918 38.92162386 70.64825722 38.92550535 68.3742981 38.93052673 C63.60867851 38.93642576 58.84335879 38.92784471 54.07777405 38.90916443 C47.96175016 38.88636206 41.84642785 38.89950408 35.73042965 38.92345428 C31.035326 38.93789008 26.34038944 38.93331663 21.64528084 38.92294312 C19.3897703 38.92027037 17.13424471 38.92356472 14.87875175 38.93286133 C11.73016382 38.94299155 8.58272168 38.92757513 5.43421936 38.90525818 C4.49751404 38.9133551 3.56080872 38.92145203 2.59571838 38.92979431 C-3.68415175 38.84710275 -3.68415175 38.84710275 -6.28442383 36.55859375 C-7.61637744 33.42152295 -7.59545482 30.72268987 -7.604599 27.3212738 C-7.60746918 26.64597122 -7.61033936 25.97066864 -7.61329651 25.27490234 C-7.61533221 23.85195575 -7.60983682 22.42898086 -7.59727478 21.00608826 C-7.58118687 18.82861386 -7.59715077 16.65298825 -7.61631775 14.47557068 C-7.61433572 13.09080096 -7.61049286 11.7060324 -7.604599 10.3212738 C-7.60121521 9.06371277 -7.59783142 7.80615173 -7.59434509 6.51048279 C-7.2061615 3.38768005 -7.2061615 3.38768005 -5.94478512 1.71673489 C-3.79417034 0.07274194 -2.68665774 0.00877197 0 0 Z " fill="#F7F6F8" transform="translate(204.20616149902344,231.61231994628906)"/>
<path d="M0 0 C0.66 0.33 1.32 0.66 2 1 C-5.59 8.59 -13.18 16.18 -21 24 C-21.66 23.67 -22.32 23.34 -23 23 C-15.74913262 14.82136415 -8.17863585 7.25086738 0 0 Z " fill="#9774FC" transform="translate(67,41)"/>
</svg>
